<svg
	style="opacity: 20%"
	width="213"
	height="378"
	viewBox="0 0 213 378"
	fill="none"
	xmlns="http://www.w3.org/2000/svg">
	<path
		d="M114.905 1.12106C114.043 1.69608 111.527 2.48672 109.299 2.84611C106.064 3.42112 104.555 4.13989 101.824 6.58369C99.8831 8.30874 97.3674 10.465 96.2174 11.4713C94.2048 13.1964 94.0611 13.6276 94.0611 18.2996C94.133 22.1091 93.7736 24.0497 92.5517 26.206C90.5391 29.9436 90.611 32.9625 92.8392 36.1969C93.8455 37.6344 94.6361 39.4314 94.6361 40.222C94.6361 42.5939 96.0736 44.8221 98.5893 46.5472L101.105 48.1284V46.1159C101.105 44.9659 101.752 43.2408 102.614 42.3064C103.405 41.372 103.908 40.0782 103.764 39.3595C103.549 38.6407 103.693 38.0657 104.052 38.0657C104.411 38.0657 104.699 37.5626 104.699 36.9875C104.699 36.2688 105.202 35.9094 105.993 36.0532C107.646 36.3407 108.293 37.3469 108.293 39.8626C108.293 41.5158 108.508 41.8033 109.011 40.9408C109.586 40.0064 109.73 40.0782 109.73 41.0845C109.73 41.8752 110.305 42.3783 111.168 42.3783C112.174 42.3783 112.605 41.8752 112.605 40.7251C112.605 39.4314 112.965 39.072 114.258 39.072C115.48 39.1439 115.768 38.7845 115.624 37.4907C115.265 35.1906 116.271 35.55 119.146 38.5688C124.034 43.8877 124.393 44.3909 123.459 45.5409C122.668 46.4753 121.59 49.4941 120.871 52.5129C120.727 53.1598 121.374 54.3817 122.381 55.2442C124.249 56.8974 124.609 58.8381 123.243 60.2037C122.165 61.2819 122.884 61.2819 127.699 59.9881C129.856 59.4131 131.94 58.9099 132.299 58.9099C132.587 58.9099 132.659 60.4194 132.371 62.2882L131.868 65.5945L133.593 64.5163C135.103 63.5101 135.534 63.5101 136.684 64.3726C138.84 65.9539 141.787 65.5945 144.375 63.2944C145.669 62.2163 147.465 60.9944 148.4 60.7069C151.059 59.9162 154.869 56.1786 155.372 53.8786C155.588 52.8004 155.444 50.5722 155.084 48.991C154.438 46.8347 154.509 45.469 155.372 43.0252C156.378 40.222 156.378 39.4314 155.516 36.9157C154.869 35.2625 154.581 32.6031 154.797 30.5186C155.084 27.2842 154.941 26.6373 152.928 24.1216C151.706 22.6122 150.7 20.7434 150.7 20.0965C150.7 19.3778 149.478 17.1496 148.04 15.2089C146.531 13.1964 144.806 10.6088 144.087 9.38689C143.44 8.23686 142.147 6.79932 141.14 6.15244C139.056 4.78678 132.371 2.84611 127.34 2.19921C125.399 1.91171 123.027 1.33669 122.165 0.833557C120.009 -0.388344 116.846 -0.244591 114.905 1.12106ZM126.765 51.866C126.621 52.8004 126.477 52.2254 126.477 50.6441C126.406 49.0628 126.549 48.3441 126.765 48.991C126.909 49.7097 126.909 51.0035 126.765 51.866ZM127.987 54.9567C128.203 55.5317 128.059 56.0349 127.699 56.0349C127.268 56.0349 126.981 55.5317 126.981 54.9567C126.981 54.3817 127.124 53.8786 127.268 53.8786C127.412 53.8786 127.699 54.3817 127.987 54.9567Z"
		fill="#5BBC6B"
	/>
	<path
		d="M110.09 45.2532C110.305 45.6125 110.665 45.9719 110.88 45.9719C111.024 45.9719 111.168 45.6125 111.168 45.2532C111.168 44.8219 110.808 44.5344 110.377 44.5344C110.018 44.5344 109.874 44.8219 110.09 45.2532Z"
		fill="#5BBC6B"
	/>
	<path
		d="M103.333 46.1876C102.758 46.9063 102.83 47.4814 103.477 48.4876C104.411 49.7095 104.555 49.7095 107.071 48.4876C108.508 47.8407 109.73 46.9782 109.73 46.6188C109.73 46.1876 109.155 46.2594 108.365 46.6907C107.574 47.0501 106.208 47.4095 105.274 47.3376C103.621 47.2657 103.621 47.2657 105.418 46.7626C106.999 46.3313 107.071 46.1876 105.921 45.7563C104.196 45.1094 104.268 45.1094 103.333 46.1876Z"
		fill="#5BBC6B"
	/>
	<path
		d="M100.099 52.7286C99.38 55.6755 101.608 59.6287 103.98 59.6287C104.914 59.6287 105.13 60.06 104.914 61.3538C104.699 62.2882 104.914 63.2944 105.346 63.5101C105.777 63.7976 106.136 66.3133 106.136 69.4758V74.9385L107.861 73.3572C108.868 72.4228 110.09 70.6978 110.665 69.4758C111.743 67.3195 111.599 65.0195 110.377 65.8101C110.018 66.0258 109.73 64.4445 109.73 62.3601C109.73 58.91 109.586 58.4787 108.149 58.4068C105.921 58.1912 103.118 55.963 101.752 53.3036C100.53 51.0035 100.53 51.0035 100.099 52.7286Z"
		fill="#5BBC6B"
	/>
	<path
		d="M104.411 54.2378C104.196 54.8847 104.627 55.6035 105.418 56.0347C106.208 56.466 106.927 56.6097 106.927 56.3941C107.574 53.6628 105.418 51.794 104.411 54.2378Z"
		fill="#5BBC6B"
	/>
	<path
		d="M111.527 60.3474C111.815 60.7787 112.318 60.9224 112.677 60.7068C113.252 60.2756 113.612 61.2818 113.396 62.6475C113.324 63.2944 115.121 63.2944 117.637 62.5756C119.362 62.0725 119.362 62.0725 117.996 61.4256C117.205 61.1381 116.055 60.7787 115.337 60.7787C114.69 60.7068 113.899 60.4912 113.612 60.1318C112.821 59.3412 111.024 59.4849 111.527 60.3474Z"
		fill="#5BBC6B"
	/>
	<path
		d="M113.468 68.2537C113.468 69.26 113.612 69.6194 113.827 69.1163C113.971 68.685 113.971 67.8225 113.827 67.3193C113.612 66.8881 113.468 67.2475 113.468 68.2537Z"
		fill="#5BBC6B"
	/>
	<path
		d="M128.059 87.7325C127.771 88.1637 127.699 88.595 127.915 88.8106C128.059 89.0262 128.418 88.6668 128.634 88.02C129.137 86.7981 128.706 86.5824 128.059 87.7325Z"
		fill="#5BBC6B"
	/>
	<path
		d="M85.1484 103.474C83.8546 104.983 84.214 105.342 85.9391 104.264C86.4422 103.905 86.8016 103.258 86.6578 102.827C86.4422 102.324 85.8672 102.611 85.1484 103.474Z"
		fill="#5BBC6B"
	/>
	<path
		d="M39.291 125.755C39.291 127.049 38.7879 127.193 33.2534 127.193C27.3595 127.193 27.1439 127.264 25.3469 129.421C24.3407 130.643 23.4781 132.224 23.4781 132.943C23.4781 134.955 22.0406 135.458 21.9687 133.518C21.8969 131.865 21.8969 131.865 21.3218 133.661C21.0343 134.668 20.6749 135.099 20.6031 134.74C20.2437 133.158 20.8187 130.355 21.825 128.271L22.9031 126.114L21.0343 128.271C20.0281 129.421 19.2374 131.002 19.1655 131.793C19.1655 132.655 18.8062 132.943 18.0874 132.655C17.5124 132.44 17.0092 132.655 17.0092 133.086C17.0092 133.661 16.7936 133.733 16.2905 133.23C15.7155 132.655 15.7155 131.793 16.2905 130.355C16.9374 128.414 16.9374 128.343 15.9311 129.636C15.3561 130.427 14.8529 131.721 14.7811 132.511C14.7811 133.374 14.4936 134.668 14.1342 135.458C13.3435 137.255 14.0623 131.218 14.9248 128.63C15.5717 126.905 15.4998 126.905 13.7748 128.989C12.8404 130.14 11.906 131.721 11.7622 132.583C11.5466 133.733 11.4029 133.661 11.331 132.224C11.331 131.218 11.7622 129.636 12.4091 128.774C13.4154 127.336 13.4154 127.193 12.1216 127.193C8.45591 127.193 6.87462 134.093 10.1091 136.177C11.0435 136.824 13.056 137.327 14.5654 137.327C25.3469 137.399 29.1564 137.758 30.3064 138.693C31.0252 139.268 32.319 139.771 33.1096 139.771C35.4097 139.771 36.5597 145.305 36.1284 154.146C35.7691 161.19 34.044 170.75 28.9408 194.757C24.125 217.326 22.6875 231.198 21.3218 266.993C20.6031 287.118 21.1062 296.39 23.2625 302.356C24.7 306.166 24.8438 311.341 23.55 312.85C22.2562 314.431 24.5563 316.085 26.3532 314.935C27.4314 314.288 27.9345 314.36 28.797 315.15C30.0908 316.516 30.7377 316.516 30.2346 315.222C30.0189 314.647 30.2346 314 30.6658 313.713C31.2408 313.353 31.169 312.922 30.5221 312.059C30.0189 311.413 31.2408 311.844 33.469 313.066C36.5597 314.719 37.4941 315.725 38.2847 318.025C38.8598 319.607 39.0754 321.835 38.8598 323.057C38.5723 324.71 38.6441 324.925 39.2191 324.135C39.6504 323.56 40.0098 321.475 40.0098 319.607C40.0098 315.725 38.5004 313.856 33.7565 311.628C30.6658 310.191 26.8563 305.734 27.4314 304.081C27.5751 303.434 28.0783 299.697 28.4376 295.743C29.8752 281.728 30.1627 279.931 30.8096 279.499C31.6002 278.996 30.7377 276.696 29.6595 276.696C29.0845 276.696 29.0845 276.552 29.7314 276.121C30.2346 275.762 31.2408 268.718 32.3909 257.289C33.469 247.227 34.4034 237.523 34.619 235.726C34.7628 233.929 35.1222 230.551 35.3378 228.179C35.5534 225.807 35.9128 222.717 36.0566 221.351C36.2722 219.985 36.5597 217.038 36.7753 214.882C38.3566 198.135 40.1535 181.531 41.0879 174.631C41.2317 173.625 41.5911 170.894 41.8067 168.522C42.3098 163.49 43.4599 156.518 44.7537 150.624C45.113 149.043 45.3287 148.756 45.9037 149.546C46.4068 150.265 46.4787 150.121 46.2631 148.899C46.0474 147.965 46.0474 147.318 46.1912 147.534C46.4068 147.749 48.8506 147.102 51.6538 146.168C56.4696 144.515 56.9727 144.515 60.7103 145.521C62.8666 146.024 64.951 146.959 65.2385 147.39C66.0292 148.756 68.0417 146.887 68.0417 144.802C68.0417 143.509 67.3229 142.862 64.8073 141.855C63.0103 141.209 61.4291 140.418 61.2853 140.202C60.9259 139.627 75.3013 139.915 77.6732 140.562C80.0451 141.137 82.9202 139.34 83.5671 136.896C83.9265 135.458 84.2858 135.243 85.939 135.53C88.3828 136.033 90.3235 134.308 90.3235 131.649C90.3235 129.996 90.2516 129.924 89.3891 131.074C88.2391 132.655 84.214 132.799 82.5608 131.29C81.842 130.643 80.1889 129.852 78.967 129.636C76.0919 129.061 74.2231 130.499 73.0012 134.236C72.2824 136.465 72.0668 136.608 71.2762 135.602C70.773 134.955 70.198 134.596 69.9824 134.883C68.9761 135.818 69.5511 133.23 70.9168 130.14C73.0012 125.611 72.7137 125.683 69.1917 130.571C66.2448 134.596 64.4479 136.465 64.4479 135.53C64.4479 135.315 65.0948 133.446 65.8854 131.361L67.3229 127.552L65.526 129.708C64.5197 130.858 63.3697 131.865 62.9385 131.865C62.4353 131.865 61.7884 132.511 61.4291 133.302C60.9978 134.452 60.9259 134.236 61.0697 132.368C61.2134 131.146 61.2134 130.068 61.0697 130.068C60.9259 130.068 60.3509 131.146 59.7759 132.368C58.6259 134.955 58.3384 134.093 59.3446 131.29C59.9915 129.636 59.9915 129.636 55.3195 129.708C51.0788 129.78 50.4319 129.996 49.0663 131.721C47.9881 133.086 46.8381 133.661 45.2568 133.661C43.1724 133.661 43.0286 133.877 42.5255 137.04C42.238 138.908 41.2317 141.568 40.2973 142.934C39.3629 144.371 38.5723 146.096 38.5723 146.743C38.5723 149.115 37.1347 148.109 37.0628 145.665C36.991 144.443 36.7753 142.574 36.4878 141.568C35.9847 139.771 36.9191 138.693 40.2254 137.543C40.8723 137.255 41.4473 136.321 41.4473 135.387C41.4473 134.093 41.0161 133.733 39.1473 133.518C37.1347 133.374 36.7753 133.015 36.7753 131.505C36.7753 130.211 37.2066 129.636 38.4285 129.493C39.7223 129.277 40.0098 128.774 40.0098 126.761C40.0098 125.396 39.866 124.317 39.6504 124.317C39.4348 124.317 39.291 124.964 39.291 125.755ZM82.7764 134.308C83.3514 136.177 82.4171 138.118 81.0514 137.83C78.967 137.399 79.1107 132.943 81.267 132.943C81.842 132.943 82.4889 133.518 82.7764 134.308ZM57.979 139.412C57.979 139.771 57.1883 140.13 56.182 140.13C55.1758 140.13 54.3851 139.771 54.3851 139.412C54.3851 138.98 55.1758 138.693 56.182 138.693C57.1883 138.693 57.979 138.98 57.979 139.412ZM41.4473 145.593C41.0161 146.599 40.7286 148.971 40.7286 150.768C40.7286 153.715 38.5004 177.866 37.4941 185.413C37.3503 186.778 36.4878 194.254 35.6972 201.944C34.9065 209.635 34.044 217.254 33.9003 218.835C33.6846 220.417 32.894 227.676 32.1033 235.008C31.2408 242.339 30.0908 252.042 29.5158 256.571C28.9408 261.099 28.2939 267.424 28.0783 270.587C27.8626 273.677 27.5751 276.481 27.3595 276.768C27.2157 277.056 26.9282 280.002 26.7126 283.309C26.497 286.615 26.2095 290.065 25.9219 291.071C25.7063 292.078 25.5626 294.45 25.5626 296.462L25.6344 299.984L24.3407 298.259C20.8906 293.3 25.4188 231.773 32.4627 189.007C33.8284 180.884 35.7691 168.809 36.7753 162.053C37.8535 155.368 39.291 148.468 40.0817 146.815C41.5911 143.437 42.5973 142.574 41.4473 145.593ZM27.5032 215.026C26.4251 223.723 24.7719 240.973 23.7656 254.414C23.4781 258.152 23.1188 260.811 22.9031 260.308C22.5437 259.086 24.0532 233.211 24.9876 225.376C26.0657 216.032 28.0064 204.46 28.3658 205.394C28.5095 205.826 28.0783 210.21 27.5032 215.026ZM28.8689 312.706C29.7314 314.072 28.5095 314.36 27.2876 313.138C26.1376 311.988 26.1376 311.916 27.2157 311.916C27.8626 311.916 28.6533 312.275 28.8689 312.706Z"
		fill="#5BBC6B"
	/>
	<path
		d="M86.0828 155.584C84.4296 158.531 82.9202 160.975 82.7046 160.975C82.2014 160.975 78.5357 158.603 78.0326 157.884C77.4576 157.093 76.8825 159.322 76.3075 164.209C76.0919 166.15 75.5888 169.528 75.1575 171.684C74.6544 174.703 74.7262 175.781 75.3731 176.213C76.0919 176.572 76.0919 176.788 75.445 176.788C73.8637 176.788 72.7137 182.25 74.2231 182.825C75.445 183.257 75.5888 182.466 74.4387 181.316C73.8637 180.741 73.9356 180.382 74.6544 180.022C75.1575 179.663 75.3731 179.663 75.0856 180.022C74.7981 180.31 74.87 181.028 75.2294 181.46C75.6606 181.963 75.7325 182.897 75.5169 183.616C75.1575 184.55 74.87 184.622 74.4387 183.832C73.9356 183.041 73.72 183.113 72.9293 183.903C72.2106 184.622 72.2106 184.766 72.9293 184.407C73.3606 184.119 73.7918 184.263 73.7918 184.622C73.7918 185.054 73.2887 185.413 72.6418 185.413C71.923 185.413 71.6355 185.844 71.8512 186.491C72.1387 187.066 71.9949 187.713 71.6355 187.929C71.2043 188.216 70.9168 188.647 70.9168 189.079C70.9168 190.013 74.3669 189.869 74.6544 188.935C74.7981 188.504 75.3013 189.079 75.8044 190.157C76.5232 191.882 76.5232 192.026 75.8044 191.163C74.7262 189.869 71.348 190.085 72.1387 191.379C72.4262 191.882 71.9949 191.738 71.2762 191.163C70.1261 190.229 69.9824 190.229 70.3418 191.163C70.773 192.457 73.7918 193.032 73.7918 191.81C73.7918 191.235 74.2231 191.379 75.0856 192.097C75.8044 192.816 76.7388 193.104 77.0263 192.816C77.3857 192.457 77.3138 192.744 76.8107 193.391C76.3794 194.038 76.0919 194.757 76.3075 194.972C76.5232 195.26 76.4513 195.26 76.1638 195.044C75.8044 194.829 75.5888 194.254 75.5888 193.822C75.5888 193.391 74.295 193.032 72.5699 192.96C70.1261 192.888 69.4792 193.176 69.1917 194.326C68.9761 195.116 69.1917 196.266 69.6949 196.841C70.3418 197.704 70.3418 197.776 69.6949 197.416C68.6886 196.769 67.6104 199.86 68.2573 201.513C68.473 202.088 68.3292 202.663 67.8979 202.807C67.4667 202.951 67.0354 204.388 66.8917 205.898C66.7479 207.479 65.8135 212.151 64.8072 216.32C59.704 237.595 59.5602 241.117 62.8666 254.774C64.0885 259.877 66.2448 269.293 67.6823 275.618C71.1324 290.64 73.5043 298.619 74.9419 299.625C76.0919 300.344 77.9607 304.872 77.6013 305.95C77.3857 306.453 77.6013 306.885 78.0326 306.885C78.4638 306.885 78.7513 307.1 78.6795 307.388C78.3919 308.178 80.9795 314.791 82.1295 316.516C82.9921 317.81 83.0639 317.81 83.4952 316.157C83.7108 315.222 83.7827 311.413 83.639 307.747C83.4233 302.5 83.5671 300.919 84.2858 300.631C84.8609 300.416 85.0765 299.913 84.789 299.481C84.5733 299.05 84.7171 298.978 85.1484 299.266C85.5796 299.481 86.9453 299.122 88.2391 298.331C90.5391 296.894 91.4735 295.025 90.3235 294.306C89.9641 294.09 89.8203 294.594 89.9641 295.384C90.1079 296.247 89.8922 296.822 89.5328 296.678C89.1016 296.534 88.7422 296.103 88.7422 295.744C88.7422 295.312 88.4547 294.666 88.0953 294.162C87.5922 293.659 87.664 293.156 88.1672 292.869C88.7422 292.509 88.7422 292.15 88.1672 291.431C87.5922 290.784 87.5922 290.353 88.1672 289.994C88.5266 289.778 88.886 289.922 88.886 290.425C88.886 290.928 89.1016 291.144 89.3172 290.856C89.5328 290.64 89.461 289.994 89.1735 289.49C88.2391 287.981 88.2391 286.759 89.1016 286.759C89.6766 286.759 89.6766 286.543 89.2453 286.184C87.7359 285.106 87.3047 278.349 88.7422 278.709C89.3172 278.781 89.5328 278.565 89.2453 278.134C89.0297 277.703 88.5266 277.559 88.2391 277.774C87.8797 277.918 87.0172 277.631 86.2984 277.056C85.0765 276.121 85.0765 276.049 86.2265 276.409C87.1609 276.768 87.3765 276.553 86.9453 275.546C86.6578 274.828 86.8015 274.468 87.2328 274.756C88.0234 275.259 88.0953 272.024 87.2328 271.234C87.0172 270.946 86.8734 271.449 87.089 272.24C87.2328 273.031 86.8734 274.109 86.2984 274.612C85.4359 275.259 85.364 275.259 85.6515 274.468C86.2265 272.671 86.5859 266.634 86.0109 266.993C85.2921 267.424 85.5077 263.687 86.2265 262.537C86.514 262.105 86.4421 261.53 86.0109 261.243C85.364 260.812 85.0046 261.315 85.2202 262.465C85.364 263.399 84.789 263.112 83.7827 261.818C83.2077 261.171 83.1358 260.812 83.5671 261.099C84.0702 261.387 84.5733 260.883 84.789 259.805C84.9327 258.799 84.789 257.793 84.4296 257.577C84.1421 257.361 83.9983 256.858 84.2858 256.499C84.5015 256.14 85.0765 256.068 85.5077 256.355C86.0109 256.643 85.939 256.283 85.364 255.636C84.789 254.918 84.214 254.558 83.9983 254.774C83.7827 254.918 83.2077 254.558 82.6327 253.84C81.9858 253.049 81.7702 253.049 82.1295 253.696C82.5608 254.558 82.4889 254.63 81.6264 253.84C80.7639 253.049 80.7639 252.833 81.6983 252.258C82.2733 251.899 82.9921 251.827 83.4233 252.043C83.7827 252.258 83.8546 252.114 83.5671 251.611C83.2796 251.18 82.6327 251.036 82.2014 251.324C81.6983 251.611 81.842 251.18 82.417 250.461C83.0639 249.671 83.1358 249.311 82.6327 249.671C82.0577 249.958 81.6983 249.743 81.6983 249.096C81.6983 248.449 81.9139 248.018 82.2733 248.161C82.5608 248.233 82.8483 247.946 82.9921 247.586C83.0639 247.155 82.4889 246.867 81.7702 246.867C80.9795 246.867 80.117 246.58 79.7576 246.221C79.4701 245.861 79.542 245.789 80.0451 246.077C80.4764 246.292 81.0514 246.221 81.3389 245.789C81.6264 245.358 82.1295 245.286 82.5608 245.502C83.0639 245.789 83.1358 245.646 82.8483 245.142C82.5608 244.711 81.9139 244.567 81.4826 244.855C80.9795 245.142 81.1233 244.711 81.6983 243.992C82.5608 242.914 82.5608 242.771 81.7702 243.274C80.9795 243.705 80.8358 243.561 81.1951 242.627C81.4826 241.98 81.4108 241.62 81.0514 241.836C80.692 242.052 80.117 241.908 79.9014 241.477C79.6139 241.045 79.8295 240.83 80.3326 240.902C80.9076 241.045 81.3389 240.399 81.4108 239.464C81.4826 238.53 81.1233 237.883 80.5483 237.883C79.3982 237.883 79.1826 236.733 80.2607 236.086C80.7639 235.798 80.692 235.152 80.1889 234.145C79.7576 233.355 79.6857 232.852 80.0451 233.067C80.3326 233.283 80.9795 232.995 81.4826 232.492C82.2014 231.773 82.1295 231.414 81.1951 231.126C80.5483 230.839 79.7576 231.055 79.4701 231.558C79.1107 232.205 78.8951 231.989 78.967 230.983C79.1107 229.617 80.9795 228.755 80.9795 230.12C80.9795 230.408 81.267 230.695 81.6983 230.695C82.0577 230.695 82.2014 230.192 81.9858 229.617C81.4826 228.323 82.2733 226.958 83.2796 227.533C83.7827 227.82 83.7108 228.18 83.1358 228.539C82.4889 228.898 82.5608 229.186 83.2796 229.473C83.9265 229.689 84.2858 229.33 84.3577 228.467C84.5015 226.526 83.2796 226.023 81.6264 227.533C80.7639 228.323 80.2607 228.467 80.2607 227.892C80.2607 227.389 79.9732 227.245 79.542 227.461C79.1107 227.748 79.0388 227.389 79.3263 226.67C79.6857 225.736 79.542 225.592 78.7513 226.023C78.1763 226.383 78.6076 225.592 79.7576 224.298C80.8358 223.004 81.5545 221.639 81.3389 221.279C81.0514 220.92 81.4108 220.848 82.0577 221.064C82.7046 221.351 83.0639 221.998 82.8483 222.501C82.6327 223.076 82.7764 223.508 83.0639 223.508C83.9265 223.508 84.3577 216.392 83.4952 216.104C83.1358 215.96 83.2077 215.601 83.7108 215.314C84.214 215.026 84.5733 215.098 84.5733 215.529C84.5733 215.96 85.0765 216.032 85.7953 215.817C86.5859 215.529 86.8015 215.601 86.4421 216.176C86.1546 216.679 86.2984 217.039 86.6578 217.039C87.8797 217.039 87.5922 219.914 86.3703 220.345C85.7953 220.632 85.2921 221.351 85.2921 221.998C85.2921 222.861 85.4359 222.933 85.939 222.214C86.2265 221.639 86.8015 221.279 87.1609 221.279C87.5203 221.351 87.8797 220.992 87.8797 220.632C88.0953 218.979 88.3109 218.907 88.886 220.417C89.3172 221.423 89.9641 221.926 90.5391 221.639C91.3298 221.351 91.4735 221.711 91.2579 223.076C90.9704 224.298 91.186 224.945 91.761 224.945C92.2642 224.945 92.4798 224.442 92.1923 223.795C91.9767 223.22 92.0485 222.861 92.4079 223.076C92.7673 223.292 93.4142 222.645 93.7736 221.495C96.0736 215.314 101.968 200.148 102.111 200.004C102.399 199.644 117.349 223.939 122.74 233.498C128.274 243.346 132.443 247.946 137.331 249.599C141.643 251.108 144.447 251.108 152.209 249.814C155.516 249.239 160.331 248.593 162.919 248.305C170.969 247.514 177.582 246.652 179.451 246.149C180.457 245.933 182.973 246.292 185.201 247.011C189.01 248.305 189.226 248.449 192.46 254.415C194.329 257.721 196.845 261.315 198.139 262.393C202.379 265.987 208.92 266.274 210.861 263.112C211.867 261.53 212.873 256.427 212.011 257.721C211.076 259.015 208.992 259.446 208.417 258.44C208.058 257.936 207.123 257.146 206.261 256.643C205.326 256.211 204.607 255.205 204.607 254.415C204.607 253.624 203.961 252.689 203.17 252.258C201.948 251.611 201.804 251.252 202.595 249.886C203.314 248.449 203.314 248.377 202.236 249.239C201.301 250.03 201.157 249.958 201.301 248.952C201.445 248.233 201.086 246.867 200.51 245.861C200.007 244.783 199.576 243.561 199.576 243.058C199.576 240.614 195.263 232.995 193.035 231.414L190.592 229.761L192.892 232.205C195.551 235.08 198.857 243.346 198.857 247.299C198.857 248.88 198.714 250.102 198.57 250.102C198.354 250.102 194.976 248.449 190.951 246.436C186.998 244.424 183.188 242.986 182.613 243.202C181.823 243.489 181.751 243.346 182.326 242.196C183.26 240.399 183.26 237.38 182.254 236.733C181.679 236.445 181.607 236.733 181.966 237.811C182.398 239.32 180.816 242.627 180.026 241.764C178.947 240.758 166.369 239.895 166.944 240.902C167.232 241.333 166.728 241.261 165.866 240.83C164.716 240.183 164.357 240.183 164.357 240.83C164.357 241.333 164.141 241.477 163.853 241.261C163.638 240.974 162.991 241.117 162.488 241.549C161.913 242.052 161.481 242.052 161.122 241.477C160.188 239.967 161.553 239.68 170.107 239.608C174.779 239.536 179.235 239.105 179.954 238.674C180.96 238.099 181.032 237.883 180.169 237.811C179.594 237.739 178.876 237.739 178.588 237.739C178.372 237.811 177.726 237.38 177.294 236.805C176.791 236.23 176.072 235.727 175.641 235.727C175.21 235.727 175.497 236.23 176.288 236.877C177.797 238.099 177.294 238.027 174.275 236.517C172.694 235.727 172.119 235.655 171.185 236.445C170.322 237.164 170.107 237.164 170.107 236.373C170.107 235.583 169.963 235.583 169.46 236.445C169.028 237.02 168.957 237.811 169.172 238.242C169.388 238.602 169.172 238.602 168.669 238.099C168.166 237.667 167.375 237.38 166.944 237.452C166.513 237.595 166.369 237.524 166.728 237.38C168.094 236.589 167.016 235.798 165.435 236.445C164.428 236.805 163.638 236.877 163.638 236.589C163.638 236.302 163.135 236.661 162.631 237.38C161.841 238.458 161.553 238.458 161.266 237.595C160.763 236.373 159.253 236.445 157.672 237.739C156.809 238.458 156.45 238.458 156.019 237.811C155.659 237.236 155.803 237.164 156.45 237.524C157.025 237.883 157.241 237.811 156.881 237.308C156.666 236.877 155.803 236.661 155.013 236.805C154.078 237.02 153.719 236.805 154.006 236.302C154.366 235.798 154.15 235.655 153.359 235.942C152.497 236.23 152.353 236.086 152.641 235.223C153 234.361 152.784 234.145 151.994 234.433C151.419 234.72 150.916 234.505 150.916 233.858C150.916 233.355 151.131 233.067 151.419 233.211C151.778 233.427 151.85 231.342 151.491 230.12C151.419 230.048 150.844 230.264 150.125 230.623C149.119 231.126 148.759 231.055 148.759 230.336C148.759 229.761 149.119 229.545 149.55 229.761C149.981 230.048 149.909 229.761 149.478 229.186C148.975 228.539 148.687 227.389 148.903 226.454C149.047 225.592 148.903 225.089 148.472 225.304C148.112 225.592 147.969 226.023 148.184 226.383C148.4 226.742 148.184 227.245 147.681 227.533C147.178 227.82 146.962 227.82 147.25 227.461C147.537 227.173 147.322 226.095 146.819 225.017C146.315 224.011 145.956 222.573 146.028 221.926C146.172 221.207 146.028 220.704 145.812 220.704C143.8 220.992 143.369 220.632 144.303 219.411C145.165 218.404 145.165 218.261 144.303 218.836C143.512 219.267 143.369 219.051 143.728 217.829C143.944 216.823 143.728 216.104 143.153 215.889C142.578 215.673 141.787 214.379 141.284 212.942C140.853 211.576 140.35 210.642 140.134 210.785C139.99 211.001 140.637 213.014 141.572 215.314C143.369 219.482 143.44 220.632 142.003 220.632C141.572 220.632 141.5 220.273 141.787 219.77C142.075 219.267 142.003 219.195 141.5 219.482C140.997 219.77 139.99 220.129 139.128 220.273C137.834 220.561 137.762 220.417 138.625 219.411C139.415 218.404 139.415 218.261 138.337 218.692C137.403 219.051 137.187 218.764 137.475 217.254C137.762 215.601 137.69 215.457 136.756 216.32C136.109 216.823 135.821 217.542 136.109 217.973C136.325 218.404 136.181 218.476 135.678 218.189C135.103 217.757 135.031 217.326 135.534 216.751C135.965 216.248 136.037 215.529 135.75 215.242C135.462 214.882 135.678 214.882 136.181 215.17C136.684 215.457 137.043 215.242 137.115 214.595C137.259 212.798 137.403 212.439 138.122 211.289C138.697 210.354 138.625 210.354 137.403 211.289C136.181 212.295 136.109 212.223 136.468 211.145C137.187 209.42 136.325 208.988 134.456 210.138C132.659 211.36 131.581 210.857 132.803 209.348C133.45 208.629 133.378 208.413 132.659 208.413C131.868 208.413 131.868 208.27 132.731 207.695C133.665 207.048 133.665 206.976 132.731 206.904C132.156 206.832 131.437 206.832 131.149 206.904C130.574 206.976 130.79 205.466 131.509 204.245C132.156 203.31 133.45 203.741 133.45 204.963C133.45 205.323 132.946 205.466 132.299 205.251C131.653 205.035 131.437 205.107 131.653 205.61C131.94 206.042 132.587 206.185 133.09 205.97C134.384 205.466 135.031 206.329 134.096 207.407C133.593 207.982 133.593 208.413 134.168 208.773C134.528 208.988 134.887 209.132 134.959 208.988C135.534 206.76 135.534 204.748 134.887 205.179C134.528 205.395 134.096 205.251 134.096 204.891C133.881 203.023 133.809 202.735 133.306 202.232C133.018 201.945 133.09 201.298 133.521 200.795C134.025 200.219 134.025 199.788 133.45 199.429C133.018 199.141 132.803 199.285 132.875 199.644C133.018 200.076 132.875 200.363 132.587 200.435C130.934 200.651 130.574 200.435 131.078 199.573C131.868 198.279 132.012 196.841 131.221 197.344C130.862 197.56 130.718 198.063 130.934 198.423C131.221 198.782 130.574 199.429 129.568 199.86C128.059 200.579 127.843 200.938 128.49 202.232C129.209 203.741 129.209 203.741 128.059 202.304C127.412 201.513 126.549 200.938 126.19 201.082C125.759 201.154 125.615 200.938 125.902 200.507C126.118 200.076 126.621 199.932 126.909 200.076C127.699 200.579 129.353 199.285 129.568 198.063C129.64 197.416 129.065 196.554 128.274 196.123C127.196 195.548 126.549 195.619 125.327 196.698L123.746 197.991L125.112 196.338C126.621 194.541 125.902 194.182 124.106 195.835C123.027 196.769 122.884 196.769 122.884 195.835C122.884 195.26 123.387 194.757 123.89 194.757C124.465 194.757 124.681 194.397 124.465 194.038C124.177 193.607 123.746 193.463 123.387 193.679C123.027 193.894 122.524 193.679 122.237 193.247C121.949 192.744 122.021 192.601 122.524 192.888C122.956 193.104 123.459 193.032 123.746 192.601C124.177 191.954 123.243 191.594 121.734 191.81C121.446 191.81 121.302 191.666 121.374 191.379C121.59 190.157 120.296 188.36 119.505 188.791C119.074 189.079 119.146 188.719 119.721 188.072C120.655 186.922 120.296 186.491 118.715 186.85C118.355 186.922 118.212 186.707 118.499 186.419C118.787 186.132 118.715 185.485 118.284 184.982C117.78 184.407 117.78 183.975 118.355 183.616C118.787 183.4 118.93 182.825 118.643 182.466C118.427 182.035 117.78 182.107 117.062 182.682C116.127 183.472 116.055 183.472 116.558 182.538C117.421 181.1 117.78 178.728 117.062 179.231C116.774 179.375 116.415 178.944 116.415 178.153C116.343 177.363 116.558 176.931 116.918 177.147C117.277 177.363 117.78 177.147 118.068 176.716C118.427 176.141 118.284 176.069 117.637 176.428C116.99 176.788 116.918 176.572 117.205 175.566C117.493 174.631 117.205 173.769 116.415 173.122C115.265 172.188 115.193 172.259 116.055 173.338C117.134 174.631 116.702 176.069 115.265 176.069C114.69 176.069 114.762 175.781 115.408 175.422C116.271 174.847 116.271 174.56 115.552 173.625C115.049 173.05 114.833 172.188 115.121 171.756C115.337 171.397 115.049 171.038 114.474 171.038C113.755 171.038 113.54 171.469 113.755 172.259C114.115 173.338 114.043 173.338 113.468 172.475C113.037 171.9 112.821 171.181 113.037 170.894C113.252 170.606 113.037 169.6 112.605 168.737L111.815 167.084L113.108 168.594C114.905 170.606 117.78 172.403 120.44 173.194C123.531 174.056 123.243 173.481 119.793 171.9C117.134 170.678 114.187 167.444 112.677 164.065C112.318 163.275 111.599 162.34 111.24 162.053C110.808 161.837 110.449 160.831 110.449 159.897C110.449 158.675 110.808 158.315 111.743 158.459C112.39 158.531 113.612 158.1 114.33 157.453C115.121 156.806 115.552 156.662 115.265 157.093C115.049 157.525 115.265 157.884 115.768 157.884C116.415 157.884 116.702 157.237 116.558 156.015C116.415 155.009 116.415 154.578 116.63 155.081C116.99 155.8 117.421 155.8 118.715 154.937C120.799 153.572 126.765 153.068 128.993 154.003C130.143 154.506 130.862 154.506 131.437 153.931C132.659 152.709 129.065 152.062 123.89 152.637C114.115 153.787 106.855 155.368 98.7331 158.172C94.0611 159.825 90.1079 160.975 89.9641 160.831C89.8203 160.687 89.6047 158.243 89.461 155.368C89.3172 152.493 89.1735 150.193 89.1016 150.193C89.1016 150.193 87.664 152.637 86.0828 155.584ZM76.9544 180.813C77.17 181.388 77.0982 181.675 76.6669 181.46C76.2356 181.244 75.9481 180.741 75.9481 180.31C75.9481 179.303 76.4513 179.519 76.9544 180.813ZM75.9481 186.132C76.3075 185.485 76.595 185.557 76.8825 186.347C77.17 187.066 76.8825 187.354 76.0919 187.282C75.445 187.138 74.87 186.707 74.7981 186.204C74.6544 185.629 74.7262 185.629 75.0137 186.204C75.3013 186.779 75.5169 186.779 75.9481 186.132ZM73.6481 187.354C73.5043 188 72.9293 188.647 72.3543 188.791C71.4918 189.079 71.4199 189.007 72.2824 188.432C72.7856 188.072 73.0012 187.354 72.7856 186.922C72.4981 186.491 72.6418 186.132 73.0731 186.132C73.5043 186.132 73.7918 186.707 73.6481 187.354ZM79.2545 193.535C79.3263 194.11 78.967 194.541 78.3919 194.541C77.7451 194.541 77.6013 194.254 78.1044 193.679C78.5357 193.176 78.5357 192.529 78.1044 192.026C77.6013 191.379 77.6013 191.379 78.2482 191.882C78.6795 192.241 79.1826 193.032 79.2545 193.535ZM70.7011 195.116C70.7011 195.691 70.4136 195.979 70.0542 195.763C69.6949 195.548 69.623 195.044 69.8386 194.685C70.4855 193.751 70.7011 193.894 70.7011 195.116ZM128.274 197.704C127.484 198.207 127.556 198.351 128.346 198.351C128.921 198.351 129.209 198.566 128.921 198.782C128.706 198.998 127.915 198.854 127.196 198.423C126.406 197.991 126.262 197.632 126.837 197.632C127.34 197.632 127.556 197.344 127.34 196.913C127.124 196.482 127.412 196.41 128.059 196.698C128.993 197.057 129.065 197.201 128.274 197.704ZM133.45 203.166C133.45 203.31 133.09 203.238 132.659 203.023C132.299 202.735 131.221 203.095 130.359 203.885L128.778 205.179L130.143 203.526C131.365 202.088 131.221 201.585 129.64 201.873C129.281 201.945 129.209 201.657 129.496 201.226C129.856 200.579 133.45 202.304 133.45 203.166ZM73.0731 205.107C73.0731 205.251 72.4981 205.826 71.8512 206.329C70.7011 207.263 70.6293 207.192 71.5637 206.042C72.4981 204.891 73.0731 204.532 73.0731 205.107ZM73.0012 208.701C73.5762 209.42 73.6481 209.851 73.0731 210.21C72.6418 210.498 72.4262 210.282 72.4981 209.707C72.6418 209.204 72.2824 208.845 71.7793 208.988C71.2043 209.06 70.9886 208.845 71.2762 208.413C71.8512 207.479 71.9949 207.479 73.0012 208.701ZM135.606 210.929C134.959 211.648 134.959 212.007 135.534 212.007C136.9 212.007 136.396 213.732 134.815 214.739C133.593 215.529 133.378 215.529 133.881 214.739C134.24 214.235 134.528 213.301 134.528 212.726C134.528 211.504 135.462 209.851 136.109 209.851C136.325 209.851 136.109 210.354 135.606 210.929ZM90.3235 212.726C90.3235 213.157 90.2516 213.589 90.1797 213.732C90.036 213.876 90.611 214.739 91.4016 215.673C92.4798 216.967 92.4798 217.111 91.6173 216.392C90.1797 215.314 89.8203 216.248 91.186 217.614C91.8329 218.261 91.8329 218.476 91.186 218.476C90.6829 218.476 90.3235 218.836 90.3235 219.267C90.3235 219.626 90.7547 219.77 91.2579 219.482C91.8329 219.123 91.8329 219.339 91.1141 220.129C90.2516 221.279 90.036 221.136 88.8141 218.836C87.1609 215.745 87.1609 215.529 88.6703 216.104C89.3891 216.392 89.6766 216.248 89.3172 215.745C89.1016 215.314 89.1735 214.81 89.5328 214.523C90.3954 214.02 89.7485 212.007 88.7422 212.007C88.3828 212.007 88.3109 212.439 88.5984 212.87C88.886 213.373 88.8141 213.517 88.5266 213.229C88.1672 212.942 87.8078 212.223 87.7359 211.648C87.5922 210.785 87.8797 210.785 88.9578 211.289C89.6766 211.72 90.3235 212.367 90.3235 212.726ZM86.1546 212.151C85.1484 213.157 85.0046 214.451 85.939 213.804C86.2984 213.589 86.8015 213.732 87.0172 214.092C87.5203 214.81 85.5796 214.739 84.8609 213.948C84.3577 213.517 85.7953 211.289 86.5859 211.289C86.8015 211.289 86.6578 211.648 86.1546 212.151ZM72.8574 214.523C72.8574 214.954 72.4262 215.385 71.9949 215.385C71.5637 215.385 71.1324 214.954 71.1324 214.523C71.1324 214.092 71.5637 213.66 71.9949 213.66C72.4262 213.66 72.8574 214.092 72.8574 214.523ZM81.7702 215.889C82.1295 215.673 82.417 215.817 82.417 216.176C82.417 216.607 81.9139 217.039 81.3389 217.326C80.5483 217.614 80.2607 217.254 80.3326 216.104C80.3326 215.242 80.5483 214.954 80.7639 215.457C80.9076 215.889 81.4108 216.176 81.7702 215.889ZM71.923 217.47C72.1387 218.045 72.0668 218.332 71.6355 218.117C71.2043 217.901 70.9168 217.398 70.9168 216.967C70.9168 215.96 71.4199 216.176 71.923 217.47ZM72.5699 219.482C72.7856 219.267 72.8574 219.554 72.7856 220.201C72.7137 220.776 72.3543 221.567 72.0668 221.854C71.7793 222.142 71.5637 222.07 71.6355 221.711C71.9949 220.129 71.5637 219.77 70.5574 220.632C69.9824 221.136 69.6949 221.854 69.9824 222.286C70.2699 222.717 70.0543 222.789 69.5511 222.501C68.9042 222.07 68.9042 221.639 69.7667 220.704C70.4136 219.986 70.7011 219.123 70.4136 218.836C70.0542 218.476 70.3418 218.548 70.9886 219.051C71.6355 219.482 72.2824 219.698 72.5699 219.482ZM82.7764 219.77C82.5608 219.986 81.9858 219.77 81.4826 219.267C80.8358 218.548 80.9076 218.476 81.9139 218.907C82.6327 219.123 82.9921 219.554 82.7764 219.77ZM79.1826 220.489C78.967 220.704 78.3919 220.489 77.8888 219.986C77.2419 219.267 77.3138 219.195 78.3201 219.626C79.0388 219.842 79.3982 220.273 79.1826 220.489ZM144.95 221.711C145.525 222.07 145.525 222.501 145.094 222.933C144.231 223.795 144.806 226.383 145.884 226.383C146.315 226.383 146.459 226.598 146.172 226.814C145.669 227.317 148.112 233.858 149.837 236.445C151.347 238.745 151.634 240.399 150.412 239.392C149.909 238.961 149.334 238.817 149.119 238.961C148.903 239.177 148.759 238.817 148.759 238.099C148.831 236.589 147.106 232.708 146.1 231.989C145.094 231.342 144.087 232.061 144.662 232.995C144.95 233.498 144.806 233.57 144.303 233.283C143.656 232.852 143.656 232.492 144.303 231.701C144.734 231.126 144.878 230.695 144.59 230.695C144.303 230.695 144.519 230.12 145.022 229.473C145.597 228.826 145.669 228.467 145.237 228.755C144.734 229.042 144.447 228.539 144.447 227.389C144.447 226.383 144.087 225.233 143.656 224.801C142.793 223.939 142.865 225.448 143.728 226.814C144.015 227.317 143.656 228.108 142.937 228.611C141.859 229.545 141.787 229.473 142.65 228.395C143.297 227.605 143.369 227.101 142.793 226.742C142.362 226.526 142.218 226.023 142.434 225.664C142.65 225.304 142.218 225.017 141.572 225.017C138.768 224.945 137.834 224.658 138.193 224.154C138.337 223.795 139.056 223.795 139.775 224.011C140.781 224.37 140.781 224.226 139.559 222.789C138.768 221.854 138.481 221.351 138.984 221.567C139.415 221.854 139.99 221.783 140.206 221.495C140.637 220.776 143.656 220.92 144.95 221.711ZM69.2636 231.055C69.2636 231.63 68.9761 231.917 68.6167 231.701C68.2573 231.486 68.1855 230.983 68.4011 230.623C69.048 229.689 69.2636 229.833 69.2636 231.055ZM79.542 234.864C79.542 235.152 78.8232 235.511 77.9607 235.511C76.6669 235.655 76.5232 235.511 77.3857 235.008C78.6795 234.145 79.542 234.073 79.542 234.864ZM160.763 238.242C160.763 238.386 160.331 238.602 159.828 238.817C159.253 239.033 158.822 238.745 158.822 238.242C158.822 237.739 159.253 237.452 159.828 237.667C160.331 237.883 160.763 238.099 160.763 238.242ZM153.216 240.686C153.431 241.045 153.359 241.549 153 241.764C152.641 241.98 152.353 241.692 152.353 241.117C152.353 239.895 152.569 239.752 153.216 240.686ZM160.26 241.477C160.475 242.267 160.331 242.771 159.972 242.483C159.613 242.267 159.325 241.62 159.325 241.045C159.325 239.608 159.828 239.824 160.26 241.477ZM155.084 242.411C154.366 243.058 154.294 242.986 154.725 241.98C154.941 241.261 155.372 240.902 155.588 241.117C155.803 241.333 155.588 241.908 155.084 242.411ZM80.7639 249.024C80.7639 249.599 80.4764 249.886 80.117 249.671C79.7576 249.455 79.6857 248.952 79.9014 248.593C80.5483 247.658 80.7639 247.802 80.7639 249.024ZM195.335 253.696C195.695 253.696 195.982 253.983 195.982 254.415C195.982 255.421 195.048 255.277 193.395 253.983C192.173 252.977 192.173 252.905 193.323 253.265C194.042 253.48 194.976 253.696 195.335 253.696ZM84.1421 255.996C83.9265 256.283 83.3514 256.355 82.7764 256.068C81.267 255.565 81.4108 255.205 83.0639 255.349C83.8546 255.349 84.3577 255.708 84.1421 255.996ZM84.214 258.08C84.4296 258.296 83.8546 259.087 82.9921 259.877C82.0577 260.668 81.6983 260.74 82.2014 260.093C82.8483 259.302 82.9202 258.799 82.2733 258.152C81.6983 257.577 81.842 257.433 82.6327 257.577C83.2796 257.649 83.9983 257.865 84.214 258.08ZM207.123 258.08C207.914 259.23 207.195 259.446 206.189 258.296C205.686 257.721 205.614 257.29 205.973 257.29C206.333 257.29 206.908 257.649 207.123 258.08ZM84.9327 265.771C84.7171 266.346 84.8609 267.209 85.2921 267.712C85.7953 268.287 85.7234 268.574 85.0765 268.574C84.5015 268.574 84.0702 268.215 83.9983 267.784C83.9983 267.352 83.7827 266.13 83.639 264.98C83.3514 263.399 83.4952 263.183 84.3577 263.902C84.9327 264.334 85.1484 265.196 84.9327 265.771ZM85.5077 270.731C85.2921 271.234 85.0765 271.665 84.9327 271.665C84.789 271.665 84.5733 271.234 84.3577 270.731C84.1421 270.156 84.4296 269.724 84.9327 269.724C85.4359 269.724 85.7234 270.156 85.5077 270.731ZM87.2328 279.14C87.2328 279.571 86.6578 280.003 86.0109 280.003C85.364 280.003 84.789 279.643 84.789 279.212C84.789 278.781 85.364 278.349 86.0109 278.349C86.6578 278.278 87.2328 278.637 87.2328 279.14ZM86.5859 282.518C86.4421 282.734 86.8015 283.453 87.2328 284.028C87.9516 284.89 87.9516 285.106 87.1609 285.106C86.5859 285.106 86.2265 284.603 86.3703 283.956C86.4421 283.309 86.1546 282.518 85.7234 282.231C85.2202 281.8 85.2202 281.728 85.8671 281.871C86.4421 282.015 86.7296 282.303 86.5859 282.518ZM87.8797 287.837C87.8797 289.203 87.664 289.419 86.9453 288.772C86.2265 288.197 86.2265 287.765 86.8015 287.047C87.8797 285.753 87.8797 285.753 87.8797 287.837ZM87.7359 295.456C87.5203 295.887 87.7359 296.534 88.2391 296.894C89.2453 297.469 89.1735 297.541 86.9453 297.541C86.0828 297.541 86.2265 295.816 87.089 295.241C88.0953 294.45 88.3109 294.522 87.7359 295.456Z"
		fill="#5BBC6B"
	/>
	<path
		d="M88.886 217.757C88.886 218.117 89.2454 218.476 89.6048 218.476C90.036 218.476 90.3235 218.117 90.3235 217.757C90.3235 217.326 90.036 217.039 89.6048 217.039C89.2454 217.039 88.886 217.326 88.886 217.757Z"
		fill="#5BBC6B"
	/>
	<path
		d="M140.278 221.998C140.062 222.358 140.206 222.861 140.637 223.148C141.069 223.436 141.14 223.939 140.925 224.37C140.422 225.089 142.147 224.298 144.231 222.789C145.166 222.07 145.166 221.998 144.231 222.286C143.656 222.429 142.578 222.286 141.931 221.998C141.212 221.639 140.565 221.639 140.278 221.998Z"
		fill="#5BBC6B"
	/>
	<path
		d="M111.743 159.25C111.527 159.609 112.462 161.334 113.755 163.059C115.121 164.784 116.199 165.862 116.199 165.503C116.199 165.072 115.696 164.353 115.121 163.85C113.971 162.915 113.612 161.334 114.69 161.981C115.049 162.269 115.193 161.765 114.977 160.975C114.402 158.962 113.396 158.459 113.827 160.4C114.115 162.053 114.115 162.053 113.108 160.328C112.533 159.393 111.887 158.89 111.743 159.25Z"
		fill="#5BBC6B"
	/>
	<path
		d="M117.134 166.509C117.205 167.731 117.421 167.875 118.14 167.3C119.218 166.437 119.434 165.719 118.427 166.294C118.068 166.581 117.637 166.294 117.421 165.862C117.205 165.359 117.134 165.647 117.134 166.509Z"
		fill="#5BBC6B"
	/>
	<path
		d="M119.002 177.075C119.002 177.147 118.859 177.722 118.715 178.441C118.499 179.447 118.715 179.591 119.362 179.016C119.865 178.584 120.44 178.369 120.656 178.584C120.799 178.8 121.015 178.513 121.015 178.009C121.015 177.291 119.506 176.572 119.002 177.075Z"
		fill="#5BBC6B"
	/>
	<path
		d="M119.434 180.381C119.146 180.813 118.571 180.884 118.14 180.597C117.637 180.381 117.852 180.813 118.571 181.603C119.505 182.681 119.649 183.256 119.074 183.616C118.499 183.975 118.643 184.55 119.505 185.485C120.224 186.275 120.871 187.497 120.943 188.144C121.087 188.791 121.877 189.941 122.812 190.732C123.746 191.45 124.393 192.313 124.321 192.672C124.177 193.032 125.04 193.75 126.19 194.397C127.987 195.26 128.418 195.26 129.065 194.469C129.712 193.75 129.712 193.319 129.137 192.96C128.706 192.672 128.49 192.744 128.562 193.104C128.778 193.75 128.203 194.038 126.909 194.038C126.334 194.038 126.262 193.75 126.909 193.104C127.843 191.882 127.196 191.091 125.687 191.666C124.896 192.025 124.752 191.882 125.184 191.163C125.543 190.588 125.471 190.372 125.04 190.66C124.609 190.947 124.034 190.66 123.818 190.085C123.531 189.366 123.746 189.007 124.465 189.15C124.968 189.294 125.471 189.007 125.471 188.647C125.471 188.216 124.968 188 124.321 188.144C123.746 188.288 123.459 188.072 123.674 187.641C123.962 187.282 123.746 186.706 123.387 186.491C122.812 186.131 123.027 185.485 123.89 184.478C125.184 182.897 125.184 182.897 123.674 184.119C121.734 185.772 121.231 185.772 121.59 183.975C121.734 183.185 121.518 182.394 121.159 182.178C120.799 181.891 120.655 181.459 120.871 181.1C121.087 180.741 120.943 180.309 120.584 180.094C120.224 179.806 119.721 179.95 119.434 180.381ZM120.152 181.028C119.937 181.388 120.08 181.891 120.44 182.178C120.799 182.394 121.015 183.185 120.871 183.975C120.727 184.766 121.087 185.7 121.806 186.06C122.452 186.419 123.027 187.569 123.099 188.575C123.099 189.582 122.884 190.228 122.524 190.013C122.237 189.797 121.949 189.078 121.949 188.36C121.949 187.641 121.302 186.491 120.512 185.772C119.505 184.838 119.29 184.263 119.865 183.544C120.368 182.969 120.368 182.538 119.793 182.178C119.074 181.747 119.434 180.381 120.224 180.381C120.44 180.381 120.44 180.669 120.152 181.028ZM126.621 192.6C126.406 192.96 125.759 193.319 125.327 193.319C124.824 193.319 124.896 193.032 125.543 192.6C126.909 191.738 127.196 191.738 126.621 192.6Z"
		fill="#5BBC6B"
	/>
	<path
		d="M127.052 180.741C127.052 181.1 127.843 182.897 128.778 184.694C129.712 186.491 130.503 187.569 130.503 187.21C130.503 186.778 129.712 185.053 128.778 183.256C127.843 181.46 127.052 180.31 127.052 180.741Z"
		fill="#5BBC6B"
	/>
	<path
		d="M137.115 203.454C137.043 204.029 137.547 205.179 138.193 205.969C139.272 207.335 139.272 207.335 138.625 205.898C138.265 205.107 137.762 203.957 137.547 203.382C137.187 202.447 137.115 202.447 137.115 203.454Z"
		fill="#5BBC6B"
	/>
	<path
		d="M138.553 208.198C138.481 209.42 139.703 209.995 140.35 209.06C140.637 208.557 140.565 208.413 140.062 208.701C139.703 208.917 139.128 208.701 138.984 208.27C138.697 207.623 138.553 207.551 138.553 208.198Z"
		fill="#5BBC6B"
	/>
	<path
		d="M138.05 215.529C138.122 217.757 138.912 217.614 139.344 215.313C139.415 214.595 139.2 213.804 138.769 213.66C138.265 213.517 137.978 214.235 138.05 215.529Z"
		fill="#5BBC6B"
	/>
	<path
		d="M140.134 217.183C139.2 218.764 139.2 220.201 140.134 219.267C140.853 218.548 141.5 216.32 140.997 216.32C140.853 216.32 140.494 216.751 140.134 217.183Z"
		fill="#5BBC6B"
	/>
	<path
		d="M84.789 218.548C84.7171 219.41 85.0046 219.914 85.5078 219.698C86.5859 219.339 86.6578 217.614 85.6515 217.254C85.2203 217.11 84.8609 217.685 84.789 218.548Z"
		fill="#5BBC6B"
	/>
	<path
		d="M147.322 223.867C147.322 224.442 147.609 224.729 147.969 224.514C148.328 224.298 148.4 223.795 148.184 223.436C147.537 222.501 147.322 222.645 147.322 223.867Z"
		fill="#5BBC6B"
	/>
	<path
		d="M80.4764 224.298C80.0452 224.729 79.8295 225.52 80.0452 226.095C80.3327 226.886 80.7639 226.814 82.2015 225.879C83.7109 224.873 84.0703 224.873 84.5734 225.736C85.0765 226.454 85.4359 226.526 86.0828 225.879C87.6641 224.298 86.0828 223.436 83.3515 224.586C81.1233 225.52 80.9077 225.52 81.6983 224.586C82.7046 223.364 81.6983 223.076 80.4764 224.298Z"
		fill="#5BBC6B"
	/>
	<path
		d="M89.2454 224.945C89.0297 225.376 89.2454 225.879 89.8923 226.095C90.4673 226.311 90.7548 226.957 90.5391 227.532C90.3235 228.108 89.8204 228.323 89.3891 228.036C88.9579 227.748 88.886 227.964 89.2454 228.539C89.6766 229.258 90.036 229.186 90.8267 228.179C92.0486 226.382 92.0486 225.664 90.611 225.664C90.036 225.664 89.7485 225.304 89.9641 224.945C90.1798 224.514 90.2516 224.226 90.036 224.226C89.8204 224.226 89.461 224.586 89.2454 224.945Z"
		fill="#5BBC6B"
	/>
	<path
		d="M82.6328 232.564C81.6984 233.355 80.9796 234.361 80.9796 234.72C80.9796 235.08 81.339 234.864 81.6984 234.289C82.3453 233.355 82.4171 233.355 82.4171 234.289C82.4171 234.864 82.9203 234.433 83.4953 233.283C84.861 230.695 84.6453 230.551 82.6328 232.564Z"
		fill="#5BBC6B"
	/>
	<path
		d="M80.9795 236.445C80.3326 236.877 80.2608 237.164 80.7639 237.164C81.1952 237.164 81.8421 236.805 82.0577 236.445C82.6327 235.583 82.3452 235.583 80.9795 236.445Z"
		fill="#5BBC6B"
	/>
	<path
		d="M32.8222 278.637C31.8878 279.715 31.9597 279.787 33.1097 279.356C33.8285 279.068 34.5472 278.853 34.691 278.853C34.8347 278.853 34.9785 278.493 34.9785 278.134C34.9785 277.056 34.0441 277.271 32.8222 278.637Z"
		fill="#5BBC6B"
	/>
	<path
		d="M32.1034 302.931C32.1034 303.075 33.3253 303.794 34.8347 304.369C44.9693 308.61 50.5038 318.385 52.0851 335.06C52.5883 340.523 52.5164 341.457 51.4382 342.32C50.7195 342.967 49.8569 343.11 49.2819 342.751C48.7069 342.392 47.5569 342.104 46.6944 342.104C45.6162 342.104 45.185 341.745 45.4725 341.098C45.6881 340.523 45.5443 339.876 45.1131 339.588C44.6818 339.373 44.3224 338.367 44.3224 337.432C44.3224 336.498 44.0349 335.491 43.6037 335.276C43.2443 335.06 42.8849 334.341 42.8849 333.766C42.8849 332.041 38.716 325.86 38.2848 327.01C38.0692 327.585 36.5597 333.263 34.9066 339.588C33.2534 345.914 31.6003 351.52 31.169 351.951C30.019 353.533 27.7908 353.029 27.072 351.017C26.6408 350.011 26.3533 345.554 26.3533 341.17C26.3533 333.191 25.347 321.044 24.5563 318.96C23.9094 317.235 20.8187 315.941 17.3687 315.941C13.4873 315.869 12.6967 316.588 12.1935 320.613C11.906 322.626 11.1154 324.422 9.96536 325.572C1.26828 334.413 -2.32556 349.507 1.55579 360.936C4.07147 368.339 8.45595 373.514 14.2061 375.886C15.3561 376.389 16.0749 377.036 15.8593 377.396C15.3561 378.258 19.6687 378.186 25.8501 377.252C30.8815 376.461 33.9003 375.167 30.9534 375.167C29.5877 375.096 29.5877 375.096 31.0252 374.305C34.3316 372.436 43.4599 361.511 41.7349 361.511C41.4474 361.511 41.663 361.08 42.0943 360.505C43.5318 358.851 45.1131 352.311 45.3287 347.495C45.4006 345.482 45.5443 345.339 47.7725 345.554C49.4976 345.77 50.5038 345.41 51.1507 344.476C52.5164 342.607 53.3789 343.973 52.3726 346.56C51.7257 348.286 51.7976 349.148 52.5883 350.801C53.6664 352.886 54.3852 353.173 59.0572 354.036C60.6385 354.323 62.7948 355.258 63.8729 356.12C65.1667 357.198 67.6105 358.061 71.0606 358.636C81.2671 360.289 81.339 360.361 74.1513 362.086C66.5323 363.811 59.4165 366.398 59.4165 367.333C59.4165 367.692 59.6322 367.98 59.9916 367.98C61.0697 368.052 69.1918 369.345 71.2762 369.849C74.87 370.711 101.608 370.136 109.658 368.986C113.899 368.411 122.237 367.117 123.746 366.758C124.537 366.614 125.903 366.327 126.765 366.111C127.628 365.967 129.209 365.464 130.215 365.105C131.221 364.745 132.012 364.53 132.012 364.745C132.012 364.889 134.528 364.098 137.69 362.948C140.781 361.798 143.512 361.08 143.8 361.295C144.015 361.583 144.231 361.367 144.231 360.864C144.231 360.361 144.59 360.217 144.95 360.433C145.381 360.648 145.669 360.576 145.669 360.145C145.669 359.786 146.316 359.57 147.106 359.714C147.897 359.858 148.4 359.786 148.256 359.426C147.897 358.923 152.784 356.767 153.791 357.054C154.078 357.126 154.294 356.911 154.294 356.479C154.294 356.12 154.797 355.761 155.372 355.761C155.947 355.761 156.45 355.329 156.45 354.754C156.45 352.598 145.094 352.383 131.653 354.323C113.899 356.911 117.637 355.545 139.559 351.52C151.059 349.364 160.835 347.423 161.41 347.136C161.985 346.848 164.069 347.495 166.441 348.717C170.25 350.657 170.682 350.729 174.276 349.939C179.882 348.789 184.41 344.332 187.501 337.145C189.513 332.329 189.801 330.891 189.873 324.854C189.873 319.247 189.585 317.307 188.148 313.857L186.423 309.688L185.129 311.844C182.901 315.51 178.301 318.385 174.563 318.385C168.957 318.385 166.082 319.75 159.11 325.932C148.831 334.916 136.756 342.895 126.981 347.136C121.59 349.436 113.54 349.723 92.8392 348.286C83.7109 347.639 73.2887 347.136 69.6949 347.136C64.3042 347.136 63.1541 346.92 63.4416 346.129C63.6573 345.554 64.376 345.195 65.0229 345.339C65.6698 345.482 66.2448 345.626 66.2448 345.698C66.2448 345.77 66.748 345.914 67.3949 346.057C68.0417 346.129 68.5449 345.842 68.5449 345.41C68.5449 344.979 67.5386 344.548 66.3167 344.548C62.651 344.404 55.4633 343.398 55.0321 342.967C54.8164 342.679 54.1695 339.157 53.7383 335.06C51.5101 316.157 47.1256 308.825 34.8347 303.65C33.3253 303.075 32.1034 302.716 32.1034 302.931ZM184.41 319.894C185.991 323.776 186.423 326.004 185.201 324.135C184.841 323.56 184.482 323.416 184.482 323.847C184.482 324.207 184.913 325.213 185.488 325.932C186.207 326.938 186.279 327.729 185.848 328.591C185.488 329.238 185.273 330.244 185.345 330.748C185.488 331.251 185.057 331.754 184.482 331.754C182.182 331.97 182.038 332.113 183.045 332.76C183.763 333.263 183.835 333.479 183.188 333.479C182.685 333.479 181.176 332.76 179.81 331.826C177.798 330.532 177.294 329.813 177.294 327.873C177.294 326.579 177.798 324.566 178.373 323.416C179.019 322.194 179.235 321.26 178.948 321.26C178.66 321.26 179.091 320.829 179.882 320.254C180.601 319.679 181.032 318.96 180.744 318.672C180.169 318.097 181.391 316.229 182.326 316.229C182.613 316.229 183.548 317.882 184.41 319.894ZM171.904 331.754C172.407 334.701 175.282 337.792 177.51 337.792C178.444 337.792 180.457 337.001 181.894 335.995C183.763 334.701 184.482 334.557 184.482 335.276C184.482 336.354 183.404 337.217 181.607 337.576C175.426 338.726 175.21 338.726 173.054 336.426C171.76 335.06 170.538 334.341 169.891 334.629C167.95 335.348 167.519 330.963 169.316 329.023C170.179 328.16 170.897 326.938 170.897 326.363C170.969 325.716 171.185 326.147 171.329 327.369C171.472 328.519 171.76 330.532 171.904 331.754ZM117.852 356.264C117.349 356.408 116.487 356.408 116.055 356.264C115.552 356.048 115.912 355.904 116.918 355.904C117.924 355.904 118.284 356.048 117.852 356.264Z"
		fill="#5BBC6B"
	/>
	<path
		d="M182.11 323.488C182.613 323.991 183.188 324.207 183.404 323.991C183.619 323.776 183.26 323.344 182.541 323.129C181.535 322.697 181.463 322.769 182.11 323.488Z"
		fill="#5BBC6B"
	/>
	<path
		d="M28.5815 329.094C28.1502 329.885 27.8627 331.898 27.9346 333.623C28.0065 336.426 28.0783 336.498 28.294 334.198C28.7971 329.094 29.1565 328.447 31.2409 328.447C32.3191 328.447 33.6847 328.879 34.1879 329.31C34.9785 330.101 35.1223 330.029 34.8348 329.166C34.6191 328.519 33.4691 328.016 31.8878 327.872C29.9471 327.729 29.1565 327.944 28.5815 329.094Z"
		fill="#5BBC6B"
	/>
	<path
		d="M126.549 329.238C128.921 329.598 131.221 330.244 131.581 330.676C133.09 332.185 128.562 334.27 121.59 335.204C118.787 335.635 118.859 335.563 122.165 334.629C127.628 333.048 129.424 330.46 124.968 330.676C123.746 330.748 123.459 330.891 124.321 331.107C126.262 331.61 125.759 332.545 123.171 333.407C119.793 334.557 109.946 336.354 107.718 336.282C106.64 336.282 108.077 335.779 110.88 335.276C113.755 334.773 116.63 334.054 117.349 333.623C118.643 332.904 118.643 332.832 117.421 332.329C116.055 331.826 103.549 332.473 100.674 333.191C99.8113 333.407 98.9488 334.198 98.7331 334.845C98.3737 336.282 93.7736 337.504 92.3361 336.642C91.833 336.354 91.7611 336.426 92.0486 336.929C92.7674 338.079 85.4359 340.092 81.4108 339.876C79.6139 339.732 78.1045 339.373 78.1045 339.085C78.1045 338.726 77.7451 338.654 77.242 338.942C76.7388 339.229 76.667 339.157 76.9545 338.582C77.242 338.151 77.8889 338.007 78.3201 338.295C78.8233 338.51 78.6076 338.079 77.9608 337.288C77.242 336.498 76.667 335.276 76.667 334.557C76.667 333.263 76.5951 333.263 75.5169 334.629C74.9419 335.348 74.5825 335.563 74.8701 335.06C75.1576 334.557 74.8701 334.198 74.1513 334.198C73.4325 334.198 73.2169 334.557 73.5044 335.06C73.8638 335.563 73.6481 335.707 72.9294 335.42C71.7794 334.988 67.1074 339.517 67.898 340.307C68.1136 340.523 67.6824 340.667 66.8917 340.738C63.6573 340.882 60.7103 341.314 60.2791 341.745C60.0634 341.96 61.6447 341.96 63.801 341.745C65.9573 341.529 72.2106 341.242 77.7451 341.098C83.2796 341.026 88.6704 340.595 89.6767 340.163C90.6829 339.732 94.9237 339.157 99.0206 338.87C118.715 337.648 134.528 334.27 134.528 331.323C134.528 329.885 130.287 328.519 125.903 328.591H122.309L126.549 329.238ZM72.3544 335.923C72.3544 336.067 71.7794 336.642 71.1325 337.145C69.9824 338.079 69.9106 338.007 70.845 336.857C71.7794 335.707 72.3544 335.348 72.3544 335.923ZM103.118 336.857C102.399 337.001 101.105 337.001 100.243 336.857C99.3081 336.713 99.8832 336.57 101.464 336.57C103.046 336.498 103.764 336.642 103.118 336.857Z"
		fill="#5BBC6B"
	/>
	<path
		d="M106.64 330.172C102.758 330.604 99.6675 331.251 99.6675 331.682C99.6675 332.041 99.8831 332.401 100.242 332.401C105.849 332.041 114.043 330.963 115.48 330.388C116.055 330.101 117.852 329.813 119.434 329.669C121.302 329.526 120.799 329.382 117.996 329.382C115.624 329.382 110.521 329.741 106.64 330.172Z"
		fill="#5BBC6B"
	/>
	<path
		d="M66.4605 334.701C66.9636 334.916 67.6105 334.845 67.8261 334.629C68.1137 334.413 67.6824 334.198 66.8918 334.27C66.1011 334.27 65.8855 334.485 66.4605 334.701Z"
		fill="#5BBC6B"
	/>
	<path
		d="M67.323 335.995C67.323 336.354 67.6824 337.217 68.0418 337.792C68.4011 338.367 68.7605 338.51 68.7605 338.151C68.7605 337.72 68.4011 336.929 68.0418 336.354C67.6824 335.779 67.323 335.563 67.323 335.995Z"
		fill="#5BBC6B"
	/>
	<path
		d="M27.3596 344.261C27.4315 347.351 27.5752 347.495 29.5878 347.639C31.6003 347.783 31.6003 347.711 29.9471 347.279C28.5815 346.848 28.0783 346.057 27.719 343.901L27.2158 341.026L27.3596 344.261Z"
		fill="#5BBC6B"
	/>
</svg>